<svg xmlns="http://www.w3.org/2000/svg" xmlns:xlink="http://www.w3.org/1999/xlink" width="600" zoomAndPan="magnify" viewBox="0 0 450 187.499995" height="250" preserveAspectRatio="xMidYMid meet" version="1.0"><defs><g/><clipPath id="9d266299b7"><path d="M 94.097656 78 L 339.445312 78 L 339.445312 103 L 94.097656 103 Z M 94.097656 78 " clip-rule="nonzero"/></clipPath><clipPath id="c59daf89b3"><path d="M 195 6.121094 L 217 6.121094 L 217 27 L 195 27 Z M 195 6.121094 " clip-rule="nonzero"/></clipPath><clipPath id="8a558cfe95"><rect x="0" width="352" y="0" height="59"/></clipPath><clipPath id="71f0f89bbc"><rect x="0" width="269" y="0" height="31"/></clipPath></defs><g clip-path="url(#9d266299b7)"><path fill="#004aad" d="M 94.101562 102.6875 C 102.101562 97.511719 113.832031 92.136719 128.28125 87.464844 C 129.066406 89.078125 129.683594 90.34375 131.175781 91.859375 C 115.710938 94.972656 104.636719 98.414062 94.101562 102.6875 Z M 266.710938 78.160156 C 299.089844 83.566406 325.273438 93.4375 339.570312 102.6875 C 320.617188 95 293.550781 88.78125 260.59375 85.730469 C 262.988281 83.308594 264.496094 81.320312 266.710938 78.160156 Z M 266.710938 78.160156 " fill-opacity="1" fill-rule="evenodd"/></g><path fill="#ff66c4" d="M 202.855469 66.804688 C 218.652344 62.492188 228.800781 48.164062 231.882812 34.410156 C 234.542969 22.542969 214.296875 17.957031 218.332031 35.003906 C 219.640625 40.539062 218.292969 56.285156 202.855469 66.804688 Z M 202.855469 66.804688 " fill-opacity="1" fill-rule="evenodd"/><path fill="#ff66c4" d="M 188.902344 62.59375 C 176.03125 52.46875 172.273438 35.320312 174.792969 21.453125 C 176.96875 9.484375 197.402344 13.152344 187.042969 27.28125 C 183.679688 31.867188 178.785156 46.894531 188.902344 62.59375 Z M 188.902344 62.59375 " fill-opacity="1" fill-rule="evenodd"/><g clip-path="url(#c59daf89b3)"><path fill="#ff66c4" d="M 205.992188 26.691406 C 211.671875 26.691406 216.277344 22.085938 216.277344 16.40625 C 216.277344 10.726562 211.671875 6.121094 205.992188 6.121094 C 200.3125 6.121094 195.710938 10.726562 195.710938 16.40625 C 195.710938 22.085938 200.3125 26.691406 205.992188 26.691406 Z M 205.992188 26.691406 " fill-opacity="1" fill-rule="evenodd"/></g><path fill="#74c7cd" d="M 141.910156 92.390625 C 147.226562 92.390625 151.539062 88.082031 151.539062 82.761719 C 151.539062 77.445312 147.226562 73.136719 141.910156 73.136719 C 136.59375 73.136719 132.28125 77.445312 132.28125 82.761719 C 132.28125 88.078125 136.59375 92.390625 141.910156 92.390625 Z M 274.476562 55.480469 C 253.085938 108.640625 224.039062 95.636719 198.730469 84.382812 C 164.523438 69.167969 156.867188 83.125 204.132812 96.550781 C 121.199219 90.980469 159.730469 51.660156 201.71875 72.191406 C 223.601562 81 248.269531 99.183594 274.476562 55.480469 Z M 274.476562 55.480469 " fill-opacity="1" fill-rule="evenodd"/><g transform="matrix(1, 0, 0, 1, 49, 96)"><g clip-path="url(#8a558cfe95)"><g fill="#74c7cd" fill-opacity="0.4"><g transform="translate(0.901118, 46.550208)"><g><path d="M 32.515625 -29.125 C 32.515625 -27.914062 32.460938 -26.765625 32.359375 -25.671875 C 32.265625 -24.578125 32.21875 -23.046875 32.21875 -21.078125 C 32.21875 -19.703125 32.242188 -18.550781 32.296875 -17.625 C 32.359375 -16.695312 32.410156 -15.847656 32.453125 -15.078125 C 32.492188 -14.304688 32.515625 -13.5 32.515625 -12.65625 C 32.515625 -10.070312 32.039062 -7.84375 31.09375 -5.96875 C 30.144531 -4.09375 28.597656 -2.628906 26.453125 -1.578125 C 24.316406 -0.523438 21.410156 0 17.734375 0 L 4.234375 0 C 3.867188 0 3.578125 -0.117188 3.359375 -0.359375 C 3.140625 -0.609375 3.03125 -0.894531 3.03125 -1.21875 C 3.070312 -2.539062 3.128906 -4.890625 3.203125 -8.265625 C 3.285156 -11.640625 3.328125 -15.945312 3.328125 -21.1875 C 3.328125 -26.476562 3.285156 -30.796875 3.203125 -34.140625 C 3.128906 -37.492188 3.070312 -39.835938 3.03125 -41.171875 C 3.03125 -41.492188 3.140625 -41.773438 3.359375 -42.015625 C 3.578125 -42.265625 3.867188 -42.390625 4.234375 -42.390625 L 17.734375 -42.390625 C 21.367188 -42.390625 24.253906 -41.757812 26.390625 -40.5 C 28.535156 -39.25 30.070312 -37.644531 31 -35.6875 C 31.925781 -33.726562 32.429688 -31.660156 32.515625 -29.484375 C 32.515625 -29.398438 32.515625 -29.300781 32.515625 -29.1875 C 32.515625 -29.144531 32.515625 -29.125 32.515625 -29.125 Z M 17.625 -6.421875 C 19.238281 -6.421875 20.425781 -6.734375 21.1875 -7.359375 C 21.957031 -7.984375 22.441406 -8.769531 22.640625 -9.71875 C 22.847656 -10.664062 22.953125 -11.644531 22.953125 -12.65625 L 22.953125 -29.125 C 22.953125 -29.445312 22.921875 -29.976562 22.859375 -30.71875 C 22.796875 -31.46875 22.613281 -32.242188 22.3125 -33.046875 C 22.007812 -33.859375 21.503906 -34.546875 20.796875 -35.109375 C 20.085938 -35.679688 19.109375 -35.96875 17.859375 -35.96875 L 13.5 -35.96875 C 13.175781 -35.96875 12.894531 -35.851562 12.65625 -35.625 C 12.414062 -35.40625 12.296875 -35.132812 12.296875 -34.8125 C 12.253906 -33.082031 12.222656 -31.085938 12.203125 -28.828125 C 12.179688 -26.566406 12.171875 -24.019531 12.171875 -21.1875 C 12.171875 -18.40625 12.179688 -15.875 12.203125 -13.59375 C 12.222656 -11.3125 12.253906 -9.300781 12.296875 -7.5625 C 12.296875 -7.238281 12.414062 -6.96875 12.65625 -6.75 C 12.894531 -6.53125 13.175781 -6.421875 13.5 -6.421875 Z M 17.625 -6.421875 "/></g></g></g><g fill="#74c7cd" fill-opacity="0.4"><g transform="translate(36.439375, 46.550208)"><g><path d="M 31.125 0 L 23.4375 0 C 23.113281 0 22.828125 -0.117188 22.578125 -0.359375 C 22.335938 -0.609375 22.21875 -0.894531 22.21875 -1.21875 L 22.21875 -10.53125 C 22.21875 -11.457031 22.078125 -12.363281 21.796875 -13.25 C 21.515625 -14.144531 21 -14.882812 20.25 -15.46875 C 19.507812 -16.050781 18.472656 -16.34375 17.140625 -16.34375 L 13.375 -16.34375 C 13.050781 -16.34375 12.769531 -16.222656 12.53125 -15.984375 C 12.289062 -15.742188 12.191406 -15.460938 12.234375 -15.140625 C 12.234375 -11.585938 12.257812 -8.640625 12.3125 -6.296875 C 12.375 -3.953125 12.425781 -2.257812 12.46875 -1.21875 C 12.46875 -0.894531 12.359375 -0.609375 12.140625 -0.359375 C 11.921875 -0.117188 11.628906 0 11.265625 0 L 4.234375 0 C 3.867188 0 3.578125 -0.117188 3.359375 -0.359375 C 3.140625 -0.609375 3.03125 -0.894531 3.03125 -1.21875 C 3.070312 -2.539062 3.128906 -4.890625 3.203125 -8.265625 C 3.285156 -11.640625 3.328125 -15.945312 3.328125 -21.1875 C 3.328125 -26.476562 3.285156 -30.796875 3.203125 -34.140625 C 3.128906 -37.492188 3.070312 -39.835938 3.03125 -41.171875 C 3.03125 -41.492188 3.140625 -41.773438 3.359375 -42.015625 C 3.578125 -42.265625 3.867188 -42.390625 4.234375 -42.390625 L 17.375 -42.390625 C 19.351562 -42.390625 21.226562 -42.207031 23 -41.84375 C 24.78125 -41.476562 26.359375 -40.832031 27.734375 -39.90625 C 29.109375 -38.976562 30.1875 -37.6875 30.96875 -36.03125 C 31.757812 -34.375 32.15625 -32.253906 32.15625 -29.671875 C 32.15625 -27.285156 31.617188 -25.316406 30.546875 -23.765625 C 29.472656 -22.210938 28.09375 -20.992188 26.40625 -20.109375 C 26.238281 -20.023438 26.15625 -19.878906 26.15625 -19.671875 C 26.15625 -19.472656 26.253906 -19.3125 26.453125 -19.1875 C 27.992188 -18.46875 29.265625 -17.410156 30.265625 -16.015625 C 31.273438 -14.617188 31.78125 -12.789062 31.78125 -10.53125 C 31.78125 -8.351562 31.84375 -6.488281 31.96875 -4.9375 C 32.09375 -3.382812 32.210938 -2.179688 32.328125 -1.328125 C 32.367188 -0.960938 32.269531 -0.648438 32.03125 -0.390625 C 31.789062 -0.128906 31.488281 0 31.125 0 Z M 17.5 -35.96875 L 13.5 -35.96875 C 13.175781 -35.96875 12.894531 -35.851562 12.65625 -35.625 C 12.414062 -35.40625 12.296875 -35.132812 12.296875 -34.8125 C 12.296875 -33.363281 12.273438 -31.738281 12.234375 -29.9375 C 12.191406 -28.144531 12.171875 -26.160156 12.171875 -23.984375 C 12.171875 -23.617188 12.289062 -23.320312 12.53125 -23.09375 C 12.769531 -22.875 13.050781 -22.765625 13.375 -22.765625 L 17.5 -22.765625 C 18.832031 -22.765625 19.867188 -23.144531 20.609375 -23.90625 C 21.359375 -24.675781 21.875 -25.597656 22.15625 -26.671875 C 22.4375 -27.742188 22.578125 -28.742188 22.578125 -29.671875 C 22.578125 -31.285156 22.285156 -32.546875 21.703125 -33.453125 C 21.117188 -34.359375 20.429688 -35.003906 19.640625 -35.390625 C 18.859375 -35.773438 18.144531 -35.96875 17.5 -35.96875 Z M 17.5 -35.96875 "/></g></g></g><g fill="#74c7cd" fill-opacity="0.4"><g transform="translate(71.796005, 46.550208)"><g><path d="M 12.78125 -7.8125 L 12.953125 -1.21875 C 12.953125 -0.894531 12.832031 -0.609375 12.59375 -0.359375 C 12.351562 -0.117188 12.070312 0 11.75 0 L 4.234375 0 C 3.867188 0 3.578125 -0.117188 3.359375 -0.359375 C 3.140625 -0.609375 3.03125 -0.894531 3.03125 -1.21875 L 3.203125 -7.8125 C 3.203125 -8.132812 3.3125 -8.414062 3.53125 -8.65625 C 3.757812 -8.894531 4.035156 -9.015625 4.359375 -9.015625 L 11.5625 -9.015625 C 11.882812 -9.015625 12.164062 -8.894531 12.40625 -8.65625 C 12.65625 -8.414062 12.78125 -8.132812 12.78125 -7.8125 Z M 12.78125 -7.8125 "/></g></g></g><g fill="#74c7cd" fill-opacity="0.4"><g transform="translate(87.779141, 46.550208)"><g/></g></g><g fill="#74c7cd" fill-opacity="0.4"><g transform="translate(105.820712, 46.550208)"><g><path d="M 24.15625 0 C 23.675781 0 23.332031 -0.222656 23.125 -0.671875 L 13.140625 -19.796875 C 13.015625 -20.035156 12.820312 -20.125 12.5625 -20.0625 C 12.300781 -20.007812 12.171875 -19.84375 12.171875 -19.5625 C 12.171875 -14.757812 12.207031 -10.8125 12.28125 -7.71875 C 12.363281 -4.632812 12.425781 -2.46875 12.46875 -1.21875 C 12.46875 -0.894531 12.359375 -0.609375 12.140625 -0.359375 C 11.921875 -0.117188 11.628906 0 11.265625 0 L 4.234375 0 C 3.867188 0 3.578125 -0.117188 3.359375 -0.359375 C 3.140625 -0.609375 3.03125 -0.894531 3.03125 -1.21875 C 3.070312 -2.539062 3.128906 -4.890625 3.203125 -8.265625 C 3.285156 -11.640625 3.328125 -15.945312 3.328125 -21.1875 C 3.328125 -26.476562 3.285156 -30.796875 3.203125 -34.140625 C 3.128906 -37.492188 3.070312 -39.835938 3.03125 -41.171875 C 3.03125 -41.492188 3.140625 -41.773438 3.359375 -42.015625 C 3.578125 -42.265625 3.867188 -42.390625 4.234375 -42.390625 L 11.265625 -42.390625 C 11.628906 -42.390625 11.921875 -42.265625 12.140625 -42.015625 C 12.359375 -41.773438 12.46875 -41.492188 12.46875 -41.171875 C 12.425781 -39.960938 12.375 -37.953125 12.3125 -35.140625 C 12.257812 -32.335938 12.210938 -28.78125 12.171875 -24.46875 C 12.171875 -24.21875 12.300781 -24.050781 12.5625 -23.96875 C 12.820312 -23.894531 13.015625 -23.976562 13.140625 -24.21875 L 22.28125 -41.71875 C 22.476562 -42.164062 22.820312 -42.390625 23.3125 -42.390625 L 31.84375 -42.390625 C 32.332031 -42.390625 32.6875 -42.175781 32.90625 -41.75 C 33.125 -41.320312 33.09375 -40.90625 32.8125 -40.5 C 31.769531 -39.09375 30.296875 -36.914062 28.390625 -33.96875 C 26.492188 -31.019531 24.394531 -27.347656 22.09375 -22.953125 C 21.738281 -22.304688 21.722656 -21.679688 22.046875 -21.078125 C 24.585938 -16.234375 26.894531 -12.195312 28.96875 -8.96875 C 31.050781 -5.738281 32.617188 -3.375 33.671875 -1.875 C 33.953125 -1.46875 33.976562 -1.050781 33.75 -0.625 C 33.53125 -0.207031 33.179688 0 32.703125 0 Z M 24.15625 0 "/></g></g></g><g fill="#74c7cd" fill-opacity="0.4"><g transform="translate(142.448722, 46.550208)"><g><path d="M 29 0 C 28.3125 0 27.910156 -0.320312 27.796875 -0.96875 C 27.710938 -1.53125 27.566406 -2.335938 27.359375 -3.390625 C 27.160156 -4.441406 26.921875 -5.734375 26.640625 -7.265625 C 26.515625 -7.910156 26.128906 -8.234375 25.484375 -8.234375 L 14.53125 -8.234375 C 13.882812 -8.234375 13.484375 -7.910156 13.328125 -7.265625 C 13.035156 -5.734375 12.800781 -4.441406 12.625 -3.390625 C 12.445312 -2.335938 12.296875 -1.53125 12.171875 -0.96875 C 12.085938 -0.320312 11.703125 0 11.015625 0 L 3.9375 0 C 3.53125 0 3.207031 -0.148438 2.96875 -0.453125 C 2.726562 -0.753906 2.664062 -1.085938 2.78125 -1.453125 C 3.101562 -2.867188 3.648438 -5.238281 4.421875 -8.5625 C 5.191406 -11.894531 6.117188 -16.101562 7.203125 -21.1875 C 8.378906 -26.632812 9.289062 -31.0625 9.9375 -34.46875 C 10.582031 -37.882812 11.003906 -40.203125 11.203125 -41.421875 C 11.328125 -42.066406 11.710938 -42.390625 12.359375 -42.390625 L 27.609375 -42.390625 C 28.296875 -42.390625 28.703125 -42.066406 28.828125 -41.421875 C 29.023438 -40.203125 29.445312 -37.882812 30.09375 -34.46875 C 30.738281 -31.0625 31.625 -26.632812 32.75 -21.1875 C 33.84375 -16.101562 34.769531 -11.894531 35.53125 -8.5625 C 36.300781 -5.238281 36.867188 -2.867188 37.234375 -1.453125 C 37.316406 -1.085938 37.234375 -0.753906 36.984375 -0.453125 C 36.742188 -0.148438 36.445312 0 36.09375 0 Z M 16.28125 -14.65625 L 23.734375 -14.65625 C 24.097656 -14.65625 24.398438 -14.796875 24.640625 -15.078125 C 24.878906 -15.359375 24.960938 -15.679688 24.890625 -16.046875 C 24.722656 -16.847656 24.546875 -17.679688 24.359375 -18.546875 C 24.179688 -19.421875 23.992188 -20.300781 23.796875 -21.1875 C 23.191406 -24.050781 22.632812 -26.644531 22.125 -28.96875 C 21.625 -31.289062 21.171875 -33.300781 20.765625 -35 C 20.679688 -35.40625 20.425781 -35.609375 20 -35.609375 C 19.582031 -35.609375 19.3125 -35.40625 19.1875 -35 C 18.832031 -33.300781 18.390625 -31.289062 17.859375 -28.96875 C 17.335938 -26.644531 16.773438 -24.050781 16.171875 -21.1875 C 15.960938 -20.300781 15.765625 -19.421875 15.578125 -18.546875 C 15.398438 -17.679688 15.234375 -16.847656 15.078125 -16.046875 C 14.992188 -15.679688 15.070312 -15.359375 15.3125 -15.078125 C 15.5625 -14.796875 15.882812 -14.65625 16.28125 -14.65625 Z M 16.28125 -14.65625 "/></g></g></g><g fill="#74c7cd" fill-opacity="0.4"><g transform="translate(182.46709, 46.550208)"><g><path d="M 45.109375 -42.390625 C 45.429688 -42.390625 45.710938 -42.265625 45.953125 -42.015625 C 46.191406 -41.773438 46.3125 -41.492188 46.3125 -41.171875 C 46.28125 -39.835938 46.222656 -37.492188 46.140625 -34.140625 C 46.054688 -30.796875 46.015625 -26.476562 46.015625 -21.1875 C 46.015625 -15.945312 46.054688 -11.640625 46.140625 -8.265625 C 46.222656 -4.890625 46.28125 -2.539062 46.3125 -1.21875 C 46.3125 -0.894531 46.191406 -0.609375 45.953125 -0.359375 C 45.710938 -0.117188 45.429688 0 45.109375 0 L 38.03125 0 C 37.707031 0 37.421875 -0.117188 37.171875 -0.359375 C 36.929688 -0.609375 36.832031 -0.894531 36.875 -1.21875 C 36.914062 -2.539062 36.972656 -4.890625 37.046875 -8.265625 C 37.128906 -11.640625 37.171875 -15.945312 37.171875 -21.1875 C 37.171875 -23.726562 37.160156 -26.039062 37.140625 -28.125 C 37.117188 -30.207031 37.09375 -32.070312 37.0625 -33.71875 C 37.0625 -34.039062 36.90625 -34.210938 36.59375 -34.234375 C 36.289062 -34.253906 36.101562 -34.101562 36.03125 -33.78125 C 35.75 -32.164062 35.425781 -30.296875 35.0625 -28.171875 C 34.695312 -26.054688 34.3125 -23.726562 33.90625 -21.1875 C 33.0625 -15.820312 32.394531 -11.429688 31.90625 -8.015625 C 31.425781 -4.609375 31.125 -2.28125 31 -1.03125 C 30.875 -0.34375 30.472656 0 29.796875 0 L 19.5625 0 C 18.832031 0 18.425781 -0.34375 18.34375 -1.03125 C 18.1875 -2.28125 17.875 -4.609375 17.40625 -8.015625 C 16.945312 -11.429688 16.269531 -15.820312 15.375 -21.1875 C 14.976562 -23.726562 14.597656 -26.054688 14.234375 -28.171875 C 13.867188 -30.296875 13.546875 -32.164062 13.265625 -33.78125 C 13.222656 -34.101562 13.050781 -34.253906 12.75 -34.234375 C 12.445312 -34.210938 12.296875 -34.039062 12.296875 -33.71875 C 12.253906 -32.070312 12.222656 -30.207031 12.203125 -28.125 C 12.179688 -26.039062 12.171875 -23.726562 12.171875 -21.1875 C 12.171875 -15.945312 12.207031 -11.640625 12.28125 -8.265625 C 12.363281 -4.890625 12.425781 -2.539062 12.46875 -1.21875 C 12.46875 -0.894531 12.359375 -0.609375 12.140625 -0.359375 C 11.921875 -0.117188 11.628906 0 11.265625 0 L 4.234375 0 C 3.867188 0 3.578125 -0.117188 3.359375 -0.359375 C 3.140625 -0.609375 3.03125 -0.894531 3.03125 -1.21875 C 3.070312 -2.539062 3.128906 -4.890625 3.203125 -8.265625 C 3.285156 -11.640625 3.328125 -15.945312 3.328125 -21.1875 C 3.328125 -26.476562 3.285156 -30.796875 3.203125 -34.140625 C 3.128906 -37.492188 3.070312 -39.835938 3.03125 -41.171875 C 3.03125 -41.492188 3.140625 -41.773438 3.359375 -42.015625 C 3.578125 -42.265625 3.867188 -42.390625 4.234375 -42.390625 L 17.984375 -42.390625 C 18.671875 -42.390625 19.054688 -42.046875 19.140625 -41.359375 C 19.296875 -40.109375 19.601562 -37.785156 20.0625 -34.390625 C 20.53125 -31.003906 21.207031 -26.601562 22.09375 -21.1875 C 22.5 -18.726562 22.875 -16.46875 23.21875 -14.40625 C 23.5625 -12.351562 23.875 -10.519531 24.15625 -8.90625 C 24.195312 -8.625 24.359375 -8.484375 24.640625 -8.484375 C 24.921875 -8.484375 25.082031 -8.625 25.125 -8.90625 C 25.445312 -10.519531 25.78125 -12.351562 26.125 -14.40625 C 26.46875 -16.46875 26.84375 -18.726562 27.25 -21.1875 C 28.09375 -26.601562 28.753906 -31.003906 29.234375 -34.390625 C 29.722656 -37.785156 30.03125 -40.109375 30.15625 -41.359375 C 30.238281 -42.046875 30.640625 -42.390625 31.359375 -42.390625 Z M 45.109375 -42.390625 "/></g></g></g><g fill="#74c7cd" fill-opacity="0.4"><g transform="translate(231.808963, 46.550208)"><g><path d="M 12.46875 -1.21875 C 12.46875 -0.894531 12.359375 -0.609375 12.140625 -0.359375 C 11.921875 -0.117188 11.628906 0 11.265625 0 L 4.234375 0 C 3.867188 0 3.578125 -0.117188 3.359375 -0.359375 C 3.140625 -0.609375 3.03125 -0.894531 3.03125 -1.21875 C 3.070312 -2.539062 3.128906 -4.890625 3.203125 -8.265625 C 3.285156 -11.640625 3.328125 -15.945312 3.328125 -21.1875 C 3.328125 -26.476562 3.285156 -30.796875 3.203125 -34.140625 C 3.128906 -37.492188 3.070312 -39.835938 3.03125 -41.171875 C 3.03125 -41.492188 3.140625 -41.773438 3.359375 -42.015625 C 3.578125 -42.265625 3.867188 -42.390625 4.234375 -42.390625 L 11.265625 -42.390625 C 11.628906 -42.390625 11.921875 -42.265625 12.140625 -42.015625 C 12.359375 -41.773438 12.46875 -41.492188 12.46875 -41.171875 C 12.425781 -39.835938 12.363281 -37.492188 12.28125 -34.140625 C 12.207031 -30.796875 12.171875 -26.476562 12.171875 -21.1875 C 12.171875 -15.945312 12.207031 -11.640625 12.28125 -8.265625 C 12.363281 -4.890625 12.425781 -2.539062 12.46875 -1.21875 Z M 12.46875 -1.21875 "/></g></g></g><g fill="#74c7cd" fill-opacity="0.4"><g transform="translate(247.307758, 46.550208)"><g><path d="M 32.875 -21.1875 C 32.875 -15.945312 32.90625 -11.640625 32.96875 -8.265625 C 33.03125 -4.890625 33.101562 -2.539062 33.1875 -1.21875 C 33.1875 -0.894531 33.0625 -0.609375 32.8125 -0.359375 C 32.570312 -0.117188 32.289062 0 31.96875 0 L 19.25 0 C 18.53125 0 18.128906 -0.34375 18.046875 -1.03125 C 17.878906 -2.28125 17.523438 -4.597656 16.984375 -7.984375 C 16.441406 -11.378906 15.707031 -15.78125 14.78125 -21.1875 C 14.488281 -22.757812 14.210938 -24.242188 13.953125 -25.640625 C 13.691406 -27.035156 13.441406 -28.335938 13.203125 -29.546875 C 13.160156 -29.867188 12.988281 -30.007812 12.6875 -29.96875 C 12.382812 -29.925781 12.234375 -29.765625 12.234375 -29.484375 C 12.234375 -28.273438 12.222656 -26.984375 12.203125 -25.609375 C 12.179688 -24.234375 12.171875 -22.757812 12.171875 -21.1875 C 12.171875 -15.945312 12.207031 -11.640625 12.28125 -8.265625 C 12.363281 -4.890625 12.425781 -2.539062 12.46875 -1.21875 C 12.46875 -0.894531 12.359375 -0.609375 12.140625 -0.359375 C 11.921875 -0.117188 11.628906 0 11.265625 0 L 4.234375 0 C 3.867188 0 3.578125 -0.117188 3.359375 -0.359375 C 3.140625 -0.609375 3.03125 -0.894531 3.03125 -1.21875 C 3.070312 -2.539062 3.128906 -4.890625 3.203125 -8.265625 C 3.285156 -11.640625 3.328125 -15.945312 3.328125 -21.1875 C 3.328125 -26.476562 3.285156 -30.796875 3.203125 -34.140625 C 3.128906 -37.492188 3.070312 -39.835938 3.03125 -41.171875 C 3.03125 -41.492188 3.140625 -41.773438 3.359375 -42.015625 C 3.578125 -42.265625 3.867188 -42.390625 4.234375 -42.390625 L 16.953125 -42.390625 C 17.640625 -42.390625 18.046875 -42.046875 18.171875 -41.359375 C 18.328125 -40.140625 18.664062 -37.828125 19.1875 -34.421875 C 19.71875 -31.015625 20.46875 -26.601562 21.4375 -21.1875 C 21.71875 -19.65625 21.988281 -18.179688 22.25 -16.765625 C 22.507812 -15.359375 22.742188 -14.050781 22.953125 -12.84375 C 23.023438 -12.519531 23.210938 -12.375 23.515625 -12.40625 C 23.828125 -12.445312 23.984375 -12.609375 23.984375 -12.890625 C 23.984375 -14.109375 23.988281 -15.410156 24 -16.796875 C 24.019531 -18.191406 24.03125 -19.65625 24.03125 -21.1875 C 24.03125 -26.476562 23.988281 -30.796875 23.90625 -34.140625 C 23.832031 -37.492188 23.773438 -39.835938 23.734375 -41.171875 C 23.691406 -41.492188 23.789062 -41.773438 24.03125 -42.015625 C 24.28125 -42.265625 24.566406 -42.390625 24.890625 -42.390625 L 31.96875 -42.390625 C 32.289062 -42.390625 32.570312 -42.265625 32.8125 -42.015625 C 33.0625 -41.773438 33.1875 -41.492188 33.1875 -41.171875 C 33.101562 -39.835938 33.03125 -37.492188 32.96875 -34.140625 C 32.90625 -30.796875 32.875 -26.476562 32.875 -21.1875 Z M 32.875 -21.1875 "/></g></g></g><g fill="#74c7cd" fill-opacity="0.4"><g transform="translate(283.511984, 46.550208)"><g><path d="M 12.46875 -1.21875 C 12.46875 -0.894531 12.359375 -0.609375 12.140625 -0.359375 C 11.921875 -0.117188 11.628906 0 11.265625 0 L 4.234375 0 C 3.867188 0 3.578125 -0.117188 3.359375 -0.359375 C 3.140625 -0.609375 3.03125 -0.894531 3.03125 -1.21875 C 3.070312 -2.539062 3.128906 -4.890625 3.203125 -8.265625 C 3.285156 -11.640625 3.328125 -15.945312 3.328125 -21.1875 C 3.328125 -26.476562 3.285156 -30.796875 3.203125 -34.140625 C 3.128906 -37.492188 3.070312 -39.835938 3.03125 -41.171875 C 3.03125 -41.492188 3.140625 -41.773438 3.359375 -42.015625 C 3.578125 -42.265625 3.867188 -42.390625 4.234375 -42.390625 L 11.265625 -42.390625 C 11.628906 -42.390625 11.921875 -42.265625 12.140625 -42.015625 C 12.359375 -41.773438 12.46875 -41.492188 12.46875 -41.171875 C 12.425781 -39.835938 12.363281 -37.492188 12.28125 -34.140625 C 12.207031 -30.796875 12.171875 -26.476562 12.171875 -21.1875 C 12.171875 -15.945312 12.207031 -11.640625 12.28125 -8.265625 C 12.363281 -4.890625 12.425781 -2.539062 12.46875 -1.21875 Z M 12.46875 -1.21875 "/></g></g></g><g fill="#74c7cd" fill-opacity="0.4"><g transform="translate(299.010779, 46.550208)"><g><path d="M 11.75 -42.390625 C 12.113281 -42.390625 12.40625 -42.265625 12.625 -42.015625 C 12.84375 -41.773438 12.953125 -41.492188 12.953125 -41.171875 L 12.78125 -33.359375 C 12.738281 -31.984375 12.472656 -30.710938 11.984375 -29.546875 C 11.503906 -28.378906 10.6875 -27.441406 9.53125 -26.734375 C 8.382812 -26.023438 6.800781 -25.671875 4.78125 -25.671875 L 4.234375 -25.671875 C 3.910156 -25.671875 3.628906 -25.78125 3.390625 -26 C 3.148438 -26.226562 3.03125 -26.503906 3.03125 -26.828125 L 3.03125 -28.34375 C 3.03125 -28.664062 3.148438 -28.945312 3.390625 -29.1875 C 3.628906 -29.425781 3.910156 -29.546875 4.234375 -29.546875 L 4.78125 -29.546875 C 5.1875 -29.546875 5.648438 -29.601562 6.171875 -29.71875 C 6.703125 -29.84375 7.175781 -30.117188 7.59375 -30.546875 C 8.019531 -30.972656 8.273438 -31.648438 8.359375 -32.578125 C 8.441406 -33.097656 8.21875 -33.359375 7.6875 -33.359375 L 4.421875 -33.359375 C 4.097656 -33.359375 3.8125 -33.476562 3.5625 -33.71875 C 3.320312 -33.96875 3.203125 -34.253906 3.203125 -34.578125 L 3.03125 -41.171875 C 3.03125 -41.492188 3.148438 -41.773438 3.390625 -42.015625 C 3.628906 -42.265625 3.910156 -42.390625 4.234375 -42.390625 Z M 11.75 -42.390625 "/></g></g></g><g fill="#74c7cd" fill-opacity="0.4"><g transform="translate(315.054443, 46.550208)"><g><path d="M 12.59375 -30.703125 C 12.59375 -29.453125 13.078125 -28.453125 14.046875 -27.703125 C 15.015625 -26.953125 16.273438 -26.304688 17.828125 -25.765625 C 19.378906 -25.222656 21.023438 -24.644531 22.765625 -24.03125 C 24.503906 -23.425781 26.148438 -22.648438 27.703125 -21.703125 C 29.253906 -20.753906 30.515625 -19.484375 31.484375 -17.890625 C 32.453125 -16.296875 32.9375 -14.226562 32.9375 -11.6875 C 32.9375 -9.101562 32.472656 -6.890625 31.546875 -5.046875 C 30.617188 -3.210938 29.070312 -1.8125 26.90625 -0.84375 C 24.75 0.125 21.851562 0.609375 18.21875 0.609375 C 14.75 0.609375 11.925781 0.046875 9.75 -1.078125 C 7.570312 -2.210938 5.945312 -3.695312 4.875 -5.53125 C 3.800781 -7.375 3.1875 -9.328125 3.03125 -11.390625 C 2.988281 -11.710938 3.085938 -12.003906 3.328125 -12.265625 C 3.566406 -12.523438 3.867188 -12.65625 4.234375 -12.65625 L 11.390625 -12.65625 C 12.109375 -12.65625 12.488281 -12.289062 12.53125 -11.5625 C 12.613281 -10.832031 12.828125 -10.023438 13.171875 -9.140625 C 13.515625 -8.253906 14.078125 -7.476562 14.859375 -6.8125 C 15.648438 -6.144531 16.734375 -5.8125 18.109375 -5.8125 C 19.722656 -5.8125 20.898438 -6.082031 21.640625 -6.625 C 22.390625 -7.175781 22.875 -7.90625 23.09375 -8.8125 C 23.320312 -9.71875 23.4375 -10.675781 23.4375 -11.6875 C 23.4375 -12.976562 22.941406 -14.003906 21.953125 -14.765625 C 20.960938 -15.535156 19.6875 -16.191406 18.125 -16.734375 C 16.570312 -17.285156 14.925781 -17.863281 13.1875 -18.46875 C 11.457031 -19.070312 9.828125 -19.847656 8.296875 -20.796875 C 6.765625 -21.742188 5.503906 -23.003906 4.515625 -24.578125 C 3.523438 -26.148438 3.03125 -28.191406 3.03125 -30.703125 C 3.03125 -33.285156 3.503906 -35.492188 4.453125 -37.328125 C 5.398438 -39.160156 6.941406 -40.5625 9.078125 -41.53125 C 11.222656 -42.5 14.128906 -42.984375 17.796875 -42.984375 C 21.234375 -42.984375 24 -42.414062 26.09375 -41.28125 C 28.195312 -40.15625 29.75 -38.675781 30.75 -36.84375 C 31.757812 -35.007812 32.347656 -33.0625 32.515625 -31 C 32.515625 -30.675781 32.398438 -30.382812 32.171875 -30.125 C 31.953125 -29.863281 31.660156 -29.734375 31.296875 -29.734375 L 24.15625 -29.734375 C 23.425781 -29.734375 23.023438 -30.09375 22.953125 -30.8125 C 22.910156 -31.539062 22.753906 -32.347656 22.484375 -33.234375 C 22.222656 -34.128906 21.738281 -34.910156 21.03125 -35.578125 C 20.332031 -36.242188 19.296875 -36.578125 17.921875 -36.578125 C 16.304688 -36.578125 15.113281 -36.300781 14.34375 -35.75 C 13.582031 -35.207031 13.097656 -34.484375 12.890625 -33.578125 C 12.691406 -32.671875 12.59375 -31.710938 12.59375 -30.703125 Z M 12.59375 -30.703125 "/></g></g></g><g fill="#ff66c4" fill-opacity="1"><g transform="translate(0.901118, 46.550208)"><g><path d="M 32.515625 -29.125 C 32.515625 -27.914062 32.460938 -26.765625 32.359375 -25.671875 C 32.265625 -24.578125 32.21875 -23.046875 32.21875 -21.078125 C 32.21875 -19.703125 32.242188 -18.550781 32.296875 -17.625 C 32.359375 -16.695312 32.410156 -15.847656 32.453125 -15.078125 C 32.492188 -14.304688 32.515625 -13.5 32.515625 -12.65625 C 32.515625 -10.070312 32.039062 -7.84375 31.09375 -5.96875 C 30.144531 -4.09375 28.597656 -2.628906 26.453125 -1.578125 C 24.316406 -0.523438 21.410156 0 17.734375 0 L 4.234375 0 C 3.867188 0 3.578125 -0.117188 3.359375 -0.359375 C 3.140625 -0.609375 3.03125 -0.894531 3.03125 -1.21875 C 3.070312 -2.539062 3.128906 -4.890625 3.203125 -8.265625 C 3.285156 -11.640625 3.328125 -15.945312 3.328125 -21.1875 C 3.328125 -26.476562 3.285156 -30.796875 3.203125 -34.140625 C 3.128906 -37.492188 3.070312 -39.835938 3.03125 -41.171875 C 3.03125 -41.492188 3.140625 -41.773438 3.359375 -42.015625 C 3.578125 -42.265625 3.867188 -42.390625 4.234375 -42.390625 L 17.734375 -42.390625 C 21.367188 -42.390625 24.253906 -41.757812 26.390625 -40.5 C 28.535156 -39.25 30.070312 -37.644531 31 -35.6875 C 31.925781 -33.726562 32.429688 -31.660156 32.515625 -29.484375 C 32.515625 -29.398438 32.515625 -29.300781 32.515625 -29.1875 C 32.515625 -29.144531 32.515625 -29.125 32.515625 -29.125 Z M 17.625 -6.421875 C 19.238281 -6.421875 20.425781 -6.734375 21.1875 -7.359375 C 21.957031 -7.984375 22.441406 -8.769531 22.640625 -9.71875 C 22.847656 -10.664062 22.953125 -11.644531 22.953125 -12.65625 L 22.953125 -29.125 C 22.953125 -29.445312 22.921875 -29.976562 22.859375 -30.71875 C 22.796875 -31.46875 22.613281 -32.242188 22.3125 -33.046875 C 22.007812 -33.859375 21.503906 -34.546875 20.796875 -35.109375 C 20.085938 -35.679688 19.109375 -35.96875 17.859375 -35.96875 L 13.5 -35.96875 C 13.175781 -35.96875 12.894531 -35.851562 12.65625 -35.625 C 12.414062 -35.40625 12.296875 -35.132812 12.296875 -34.8125 C 12.253906 -33.082031 12.222656 -31.085938 12.203125 -28.828125 C 12.179688 -26.566406 12.171875 -24.019531 12.171875 -21.1875 C 12.171875 -18.40625 12.179688 -15.875 12.203125 -13.59375 C 12.222656 -11.3125 12.253906 -9.300781 12.296875 -7.5625 C 12.296875 -7.238281 12.414062 -6.96875 12.65625 -6.75 C 12.894531 -6.53125 13.175781 -6.421875 13.5 -6.421875 Z M 17.625 -6.421875 "/></g></g></g><g fill="#ff66c4" fill-opacity="1"><g transform="translate(36.439375, 46.550208)"><g><path d="M 31.125 0 L 23.4375 0 C 23.113281 0 22.828125 -0.117188 22.578125 -0.359375 C 22.335938 -0.609375 22.21875 -0.894531 22.21875 -1.21875 L 22.21875 -10.53125 C 22.21875 -11.457031 22.078125 -12.363281 21.796875 -13.25 C 21.515625 -14.144531 21 -14.882812 20.25 -15.46875 C 19.507812 -16.050781 18.472656 -16.34375 17.140625 -16.34375 L 13.375 -16.34375 C 13.050781 -16.34375 12.769531 -16.222656 12.53125 -15.984375 C 12.289062 -15.742188 12.191406 -15.460938 12.234375 -15.140625 C 12.234375 -11.585938 12.257812 -8.640625 12.3125 -6.296875 C 12.375 -3.953125 12.425781 -2.257812 12.46875 -1.21875 C 12.46875 -0.894531 12.359375 -0.609375 12.140625 -0.359375 C 11.921875 -0.117188 11.628906 0 11.265625 0 L 4.234375 0 C 3.867188 0 3.578125 -0.117188 3.359375 -0.359375 C 3.140625 -0.609375 3.03125 -0.894531 3.03125 -1.21875 C 3.070312 -2.539062 3.128906 -4.890625 3.203125 -8.265625 C 3.285156 -11.640625 3.328125 -15.945312 3.328125 -21.1875 C 3.328125 -26.476562 3.285156 -30.796875 3.203125 -34.140625 C 3.128906 -37.492188 3.070312 -39.835938 3.03125 -41.171875 C 3.03125 -41.492188 3.140625 -41.773438 3.359375 -42.015625 C 3.578125 -42.265625 3.867188 -42.390625 4.234375 -42.390625 L 17.375 -42.390625 C 19.351562 -42.390625 21.226562 -42.207031 23 -41.84375 C 24.78125 -41.476562 26.359375 -40.832031 27.734375 -39.90625 C 29.109375 -38.976562 30.1875 -37.6875 30.96875 -36.03125 C 31.757812 -34.375 32.15625 -32.253906 32.15625 -29.671875 C 32.15625 -27.285156 31.617188 -25.316406 30.546875 -23.765625 C 29.472656 -22.210938 28.09375 -20.992188 26.40625 -20.109375 C 26.238281 -20.023438 26.15625 -19.878906 26.15625 -19.671875 C 26.15625 -19.472656 26.253906 -19.3125 26.453125 -19.1875 C 27.992188 -18.46875 29.265625 -17.410156 30.265625 -16.015625 C 31.273438 -14.617188 31.78125 -12.789062 31.78125 -10.53125 C 31.78125 -8.351562 31.84375 -6.488281 31.96875 -4.9375 C 32.09375 -3.382812 32.210938 -2.179688 32.328125 -1.328125 C 32.367188 -0.960938 32.269531 -0.648438 32.03125 -0.390625 C 31.789062 -0.128906 31.488281 0 31.125 0 Z M 17.5 -35.96875 L 13.5 -35.96875 C 13.175781 -35.96875 12.894531 -35.851562 12.65625 -35.625 C 12.414062 -35.40625 12.296875 -35.132812 12.296875 -34.8125 C 12.296875 -33.363281 12.273438 -31.738281 12.234375 -29.9375 C 12.191406 -28.144531 12.171875 -26.160156 12.171875 -23.984375 C 12.171875 -23.617188 12.289062 -23.320312 12.53125 -23.09375 C 12.769531 -22.875 13.050781 -22.765625 13.375 -22.765625 L 17.5 -22.765625 C 18.832031 -22.765625 19.867188 -23.144531 20.609375 -23.90625 C 21.359375 -24.675781 21.875 -25.597656 22.15625 -26.671875 C 22.4375 -27.742188 22.578125 -28.742188 22.578125 -29.671875 C 22.578125 -31.285156 22.285156 -32.546875 21.703125 -33.453125 C 21.117188 -34.359375 20.429688 -35.003906 19.640625 -35.390625 C 18.859375 -35.773438 18.144531 -35.96875 17.5 -35.96875 Z M 17.5 -35.96875 "/></g></g></g><g fill="#ff66c4" fill-opacity="1"><g transform="translate(71.796005, 46.550208)"><g><path d="M 12.78125 -7.8125 L 12.953125 -1.21875 C 12.953125 -0.894531 12.832031 -0.609375 12.59375 -0.359375 C 12.351562 -0.117188 12.070312 0 11.75 0 L 4.234375 0 C 3.867188 0 3.578125 -0.117188 3.359375 -0.359375 C 3.140625 -0.609375 3.03125 -0.894531 3.03125 -1.21875 L 3.203125 -7.8125 C 3.203125 -8.132812 3.3125 -8.414062 3.53125 -8.65625 C 3.757812 -8.894531 4.035156 -9.015625 4.359375 -9.015625 L 11.5625 -9.015625 C 11.882812 -9.015625 12.164062 -8.894531 12.40625 -8.65625 C 12.65625 -8.414062 12.78125 -8.132812 12.78125 -7.8125 Z M 12.78125 -7.8125 "/></g></g></g><g fill="#ff66c4" fill-opacity="1"><g transform="translate(87.779141, 46.550208)"><g/></g></g><g fill="#ff66c4" fill-opacity="1"><g transform="translate(105.820712, 46.550208)"><g><path d="M 24.15625 0 C 23.675781 0 23.332031 -0.222656 23.125 -0.671875 L 13.140625 -19.796875 C 13.015625 -20.035156 12.820312 -20.125 12.5625 -20.0625 C 12.300781 -20.007812 12.171875 -19.84375 12.171875 -19.5625 C 12.171875 -14.757812 12.207031 -10.8125 12.28125 -7.71875 C 12.363281 -4.632812 12.425781 -2.46875 12.46875 -1.21875 C 12.46875 -0.894531 12.359375 -0.609375 12.140625 -0.359375 C 11.921875 -0.117188 11.628906 0 11.265625 0 L 4.234375 0 C 3.867188 0 3.578125 -0.117188 3.359375 -0.359375 C 3.140625 -0.609375 3.03125 -0.894531 3.03125 -1.21875 C 3.070312 -2.539062 3.128906 -4.890625 3.203125 -8.265625 C 3.285156 -11.640625 3.328125 -15.945312 3.328125 -21.1875 C 3.328125 -26.476562 3.285156 -30.796875 3.203125 -34.140625 C 3.128906 -37.492188 3.070312 -39.835938 3.03125 -41.171875 C 3.03125 -41.492188 3.140625 -41.773438 3.359375 -42.015625 C 3.578125 -42.265625 3.867188 -42.390625 4.234375 -42.390625 L 11.265625 -42.390625 C 11.628906 -42.390625 11.921875 -42.265625 12.140625 -42.015625 C 12.359375 -41.773438 12.46875 -41.492188 12.46875 -41.171875 C 12.425781 -39.960938 12.375 -37.953125 12.3125 -35.140625 C 12.257812 -32.335938 12.210938 -28.78125 12.171875 -24.46875 C 12.171875 -24.21875 12.300781 -24.050781 12.5625 -23.96875 C 12.820312 -23.894531 13.015625 -23.976562 13.140625 -24.21875 L 22.28125 -41.71875 C 22.476562 -42.164062 22.820312 -42.390625 23.3125 -42.390625 L 31.84375 -42.390625 C 32.332031 -42.390625 32.6875 -42.175781 32.90625 -41.75 C 33.125 -41.320312 33.09375 -40.90625 32.8125 -40.5 C 31.769531 -39.09375 30.296875 -36.914062 28.390625 -33.96875 C 26.492188 -31.019531 24.394531 -27.347656 22.09375 -22.953125 C 21.738281 -22.304688 21.722656 -21.679688 22.046875 -21.078125 C 24.585938 -16.234375 26.894531 -12.195312 28.96875 -8.96875 C 31.050781 -5.738281 32.617188 -3.375 33.671875 -1.875 C 33.953125 -1.46875 33.976562 -1.050781 33.75 -0.625 C 33.53125 -0.207031 33.179688 0 32.703125 0 Z M 24.15625 0 "/></g></g></g><g fill="#ff66c4" fill-opacity="1"><g transform="translate(142.448722, 46.550208)"><g><path d="M 29 0 C 28.3125 0 27.910156 -0.320312 27.796875 -0.96875 C 27.710938 -1.53125 27.566406 -2.335938 27.359375 -3.390625 C 27.160156 -4.441406 26.921875 -5.734375 26.640625 -7.265625 C 26.515625 -7.910156 26.128906 -8.234375 25.484375 -8.234375 L 14.53125 -8.234375 C 13.882812 -8.234375 13.484375 -7.910156 13.328125 -7.265625 C 13.035156 -5.734375 12.800781 -4.441406 12.625 -3.390625 C 12.445312 -2.335938 12.296875 -1.53125 12.171875 -0.96875 C 12.085938 -0.320312 11.703125 0 11.015625 0 L 3.9375 0 C 3.53125 0 3.207031 -0.148438 2.96875 -0.453125 C 2.726562 -0.753906 2.664062 -1.085938 2.78125 -1.453125 C 3.101562 -2.867188 3.648438 -5.238281 4.421875 -8.5625 C 5.191406 -11.894531 6.117188 -16.101562 7.203125 -21.1875 C 8.378906 -26.632812 9.289062 -31.0625 9.9375 -34.46875 C 10.582031 -37.882812 11.003906 -40.203125 11.203125 -41.421875 C 11.328125 -42.066406 11.710938 -42.390625 12.359375 -42.390625 L 27.609375 -42.390625 C 28.296875 -42.390625 28.703125 -42.066406 28.828125 -41.421875 C 29.023438 -40.203125 29.445312 -37.882812 30.09375 -34.46875 C 30.738281 -31.0625 31.625 -26.632812 32.75 -21.1875 C 33.84375 -16.101562 34.769531 -11.894531 35.53125 -8.5625 C 36.300781 -5.238281 36.867188 -2.867188 37.234375 -1.453125 C 37.316406 -1.085938 37.234375 -0.753906 36.984375 -0.453125 C 36.742188 -0.148438 36.445312 0 36.09375 0 Z M 16.28125 -14.65625 L 23.734375 -14.65625 C 24.097656 -14.65625 24.398438 -14.796875 24.640625 -15.078125 C 24.878906 -15.359375 24.960938 -15.679688 24.890625 -16.046875 C 24.722656 -16.847656 24.546875 -17.679688 24.359375 -18.546875 C 24.179688 -19.421875 23.992188 -20.300781 23.796875 -21.1875 C 23.191406 -24.050781 22.632812 -26.644531 22.125 -28.96875 C 21.625 -31.289062 21.171875 -33.300781 20.765625 -35 C 20.679688 -35.40625 20.425781 -35.609375 20 -35.609375 C 19.582031 -35.609375 19.3125 -35.40625 19.1875 -35 C 18.832031 -33.300781 18.390625 -31.289062 17.859375 -28.96875 C 17.335938 -26.644531 16.773438 -24.050781 16.171875 -21.1875 C 15.960938 -20.300781 15.765625 -19.421875 15.578125 -18.546875 C 15.398438 -17.679688 15.234375 -16.847656 15.078125 -16.046875 C 14.992188 -15.679688 15.070312 -15.359375 15.3125 -15.078125 C 15.5625 -14.796875 15.882812 -14.65625 16.28125 -14.65625 Z M 16.28125 -14.65625 "/></g></g></g><g fill="#ff66c4" fill-opacity="1"><g transform="translate(182.46709, 46.550208)"><g><path d="M 45.109375 -42.390625 C 45.429688 -42.390625 45.710938 -42.265625 45.953125 -42.015625 C 46.191406 -41.773438 46.3125 -41.492188 46.3125 -41.171875 C 46.28125 -39.835938 46.222656 -37.492188 46.140625 -34.140625 C 46.054688 -30.796875 46.015625 -26.476562 46.015625 -21.1875 C 46.015625 -15.945312 46.054688 -11.640625 46.140625 -8.265625 C 46.222656 -4.890625 46.28125 -2.539062 46.3125 -1.21875 C 46.3125 -0.894531 46.191406 -0.609375 45.953125 -0.359375 C 45.710938 -0.117188 45.429688 0 45.109375 0 L 38.03125 0 C 37.707031 0 37.421875 -0.117188 37.171875 -0.359375 C 36.929688 -0.609375 36.832031 -0.894531 36.875 -1.21875 C 36.914062 -2.539062 36.972656 -4.890625 37.046875 -8.265625 C 37.128906 -11.640625 37.171875 -15.945312 37.171875 -21.1875 C 37.171875 -23.726562 37.160156 -26.039062 37.140625 -28.125 C 37.117188 -30.207031 37.09375 -32.070312 37.0625 -33.71875 C 37.0625 -34.039062 36.90625 -34.210938 36.59375 -34.234375 C 36.289062 -34.253906 36.101562 -34.101562 36.03125 -33.78125 C 35.75 -32.164062 35.425781 -30.296875 35.0625 -28.171875 C 34.695312 -26.054688 34.3125 -23.726562 33.90625 -21.1875 C 33.0625 -15.820312 32.394531 -11.429688 31.90625 -8.015625 C 31.425781 -4.609375 31.125 -2.28125 31 -1.03125 C 30.875 -0.34375 30.472656 0 29.796875 0 L 19.5625 0 C 18.832031 0 18.425781 -0.34375 18.34375 -1.03125 C 18.1875 -2.28125 17.875 -4.609375 17.40625 -8.015625 C 16.945312 -11.429688 16.269531 -15.820312 15.375 -21.1875 C 14.976562 -23.726562 14.597656 -26.054688 14.234375 -28.171875 C 13.867188 -30.296875 13.546875 -32.164062 13.265625 -33.78125 C 13.222656 -34.101562 13.050781 -34.253906 12.75 -34.234375 C 12.445312 -34.210938 12.296875 -34.039062 12.296875 -33.71875 C 12.253906 -32.070312 12.222656 -30.207031 12.203125 -28.125 C 12.179688 -26.039062 12.171875 -23.726562 12.171875 -21.1875 C 12.171875 -15.945312 12.207031 -11.640625 12.28125 -8.265625 C 12.363281 -4.890625 12.425781 -2.539062 12.46875 -1.21875 C 12.46875 -0.894531 12.359375 -0.609375 12.140625 -0.359375 C 11.921875 -0.117188 11.628906 0 11.265625 0 L 4.234375 0 C 3.867188 0 3.578125 -0.117188 3.359375 -0.359375 C 3.140625 -0.609375 3.03125 -0.894531 3.03125 -1.21875 C 3.070312 -2.539062 3.128906 -4.890625 3.203125 -8.265625 C 3.285156 -11.640625 3.328125 -15.945312 3.328125 -21.1875 C 3.328125 -26.476562 3.285156 -30.796875 3.203125 -34.140625 C 3.128906 -37.492188 3.070312 -39.835938 3.03125 -41.171875 C 3.03125 -41.492188 3.140625 -41.773438 3.359375 -42.015625 C 3.578125 -42.265625 3.867188 -42.390625 4.234375 -42.390625 L 17.984375 -42.390625 C 18.671875 -42.390625 19.054688 -42.046875 19.140625 -41.359375 C 19.296875 -40.109375 19.601562 -37.785156 20.0625 -34.390625 C 20.53125 -31.003906 21.207031 -26.601562 22.09375 -21.1875 C 22.5 -18.726562 22.875 -16.46875 23.21875 -14.40625 C 23.5625 -12.351562 23.875 -10.519531 24.15625 -8.90625 C 24.195312 -8.625 24.359375 -8.484375 24.640625 -8.484375 C 24.921875 -8.484375 25.082031 -8.625 25.125 -8.90625 C 25.445312 -10.519531 25.78125 -12.351562 26.125 -14.40625 C 26.46875 -16.46875 26.84375 -18.726562 27.25 -21.1875 C 28.09375 -26.601562 28.753906 -31.003906 29.234375 -34.390625 C 29.722656 -37.785156 30.03125 -40.109375 30.15625 -41.359375 C 30.238281 -42.046875 30.640625 -42.390625 31.359375 -42.390625 Z M 45.109375 -42.390625 "/></g></g></g><g fill="#ff66c4" fill-opacity="1"><g transform="translate(231.808963, 46.550208)"><g><path d="M 12.46875 -1.21875 C 12.46875 -0.894531 12.359375 -0.609375 12.140625 -0.359375 C 11.921875 -0.117188 11.628906 0 11.265625 0 L 4.234375 0 C 3.867188 0 3.578125 -0.117188 3.359375 -0.359375 C 3.140625 -0.609375 3.03125 -0.894531 3.03125 -1.21875 C 3.070312 -2.539062 3.128906 -4.890625 3.203125 -8.265625 C 3.285156 -11.640625 3.328125 -15.945312 3.328125 -21.1875 C 3.328125 -26.476562 3.285156 -30.796875 3.203125 -34.140625 C 3.128906 -37.492188 3.070312 -39.835938 3.03125 -41.171875 C 3.03125 -41.492188 3.140625 -41.773438 3.359375 -42.015625 C 3.578125 -42.265625 3.867188 -42.390625 4.234375 -42.390625 L 11.265625 -42.390625 C 11.628906 -42.390625 11.921875 -42.265625 12.140625 -42.015625 C 12.359375 -41.773438 12.46875 -41.492188 12.46875 -41.171875 C 12.425781 -39.835938 12.363281 -37.492188 12.28125 -34.140625 C 12.207031 -30.796875 12.171875 -26.476562 12.171875 -21.1875 C 12.171875 -15.945312 12.207031 -11.640625 12.28125 -8.265625 C 12.363281 -4.890625 12.425781 -2.539062 12.46875 -1.21875 Z M 12.46875 -1.21875 "/></g></g></g><g fill="#ff66c4" fill-opacity="1"><g transform="translate(247.307758, 46.550208)"><g><path d="M 32.875 -21.1875 C 32.875 -15.945312 32.90625 -11.640625 32.96875 -8.265625 C 33.03125 -4.890625 33.101562 -2.539062 33.1875 -1.21875 C 33.1875 -0.894531 33.0625 -0.609375 32.8125 -0.359375 C 32.570312 -0.117188 32.289062 0 31.96875 0 L 19.25 0 C 18.53125 0 18.128906 -0.34375 18.046875 -1.03125 C 17.878906 -2.28125 17.523438 -4.597656 16.984375 -7.984375 C 16.441406 -11.378906 15.707031 -15.78125 14.78125 -21.1875 C 14.488281 -22.757812 14.210938 -24.242188 13.953125 -25.640625 C 13.691406 -27.035156 13.441406 -28.335938 13.203125 -29.546875 C 13.160156 -29.867188 12.988281 -30.007812 12.6875 -29.96875 C 12.382812 -29.925781 12.234375 -29.765625 12.234375 -29.484375 C 12.234375 -28.273438 12.222656 -26.984375 12.203125 -25.609375 C 12.179688 -24.234375 12.171875 -22.757812 12.171875 -21.1875 C 12.171875 -15.945312 12.207031 -11.640625 12.28125 -8.265625 C 12.363281 -4.890625 12.425781 -2.539062 12.46875 -1.21875 C 12.46875 -0.894531 12.359375 -0.609375 12.140625 -0.359375 C 11.921875 -0.117188 11.628906 0 11.265625 0 L 4.234375 0 C 3.867188 0 3.578125 -0.117188 3.359375 -0.359375 C 3.140625 -0.609375 3.03125 -0.894531 3.03125 -1.21875 C 3.070312 -2.539062 3.128906 -4.890625 3.203125 -8.265625 C 3.285156 -11.640625 3.328125 -15.945312 3.328125 -21.1875 C 3.328125 -26.476562 3.285156 -30.796875 3.203125 -34.140625 C 3.128906 -37.492188 3.070312 -39.835938 3.03125 -41.171875 C 3.03125 -41.492188 3.140625 -41.773438 3.359375 -42.015625 C 3.578125 -42.265625 3.867188 -42.390625 4.234375 -42.390625 L 16.953125 -42.390625 C 17.640625 -42.390625 18.046875 -42.046875 18.171875 -41.359375 C 18.328125 -40.140625 18.664062 -37.828125 19.1875 -34.421875 C 19.71875 -31.015625 20.46875 -26.601562 21.4375 -21.1875 C 21.71875 -19.65625 21.988281 -18.179688 22.25 -16.765625 C 22.507812 -15.359375 22.742188 -14.050781 22.953125 -12.84375 C 23.023438 -12.519531 23.210938 -12.375 23.515625 -12.40625 C 23.828125 -12.445312 23.984375 -12.609375 23.984375 -12.890625 C 23.984375 -14.109375 23.988281 -15.410156 24 -16.796875 C 24.019531 -18.191406 24.03125 -19.65625 24.03125 -21.1875 C 24.03125 -26.476562 23.988281 -30.796875 23.90625 -34.140625 C 23.832031 -37.492188 23.773438 -39.835938 23.734375 -41.171875 C 23.691406 -41.492188 23.789062 -41.773438 24.03125 -42.015625 C 24.28125 -42.265625 24.566406 -42.390625 24.890625 -42.390625 L 31.96875 -42.390625 C 32.289062 -42.390625 32.570312 -42.265625 32.8125 -42.015625 C 33.0625 -41.773438 33.1875 -41.492188 33.1875 -41.171875 C 33.101562 -39.835938 33.03125 -37.492188 32.96875 -34.140625 C 32.90625 -30.796875 32.875 -26.476562 32.875 -21.1875 Z M 32.875 -21.1875 "/></g></g></g><g fill="#ff66c4" fill-opacity="1"><g transform="translate(283.511984, 46.550208)"><g><path d="M 12.46875 -1.21875 C 12.46875 -0.894531 12.359375 -0.609375 12.140625 -0.359375 C 11.921875 -0.117188 11.628906 0 11.265625 0 L 4.234375 0 C 3.867188 0 3.578125 -0.117188 3.359375 -0.359375 C 3.140625 -0.609375 3.03125 -0.894531 3.03125 -1.21875 C 3.070312 -2.539062 3.128906 -4.890625 3.203125 -8.265625 C 3.285156 -11.640625 3.328125 -15.945312 3.328125 -21.1875 C 3.328125 -26.476562 3.285156 -30.796875 3.203125 -34.140625 C 3.128906 -37.492188 3.070312 -39.835938 3.03125 -41.171875 C 3.03125 -41.492188 3.140625 -41.773438 3.359375 -42.015625 C 3.578125 -42.265625 3.867188 -42.390625 4.234375 -42.390625 L 11.265625 -42.390625 C 11.628906 -42.390625 11.921875 -42.265625 12.140625 -42.015625 C 12.359375 -41.773438 12.46875 -41.492188 12.46875 -41.171875 C 12.425781 -39.835938 12.363281 -37.492188 12.28125 -34.140625 C 12.207031 -30.796875 12.171875 -26.476562 12.171875 -21.1875 C 12.171875 -15.945312 12.207031 -11.640625 12.28125 -8.265625 C 12.363281 -4.890625 12.425781 -2.539062 12.46875 -1.21875 Z M 12.46875 -1.21875 "/></g></g></g><g fill="#ff66c4" fill-opacity="1"><g transform="translate(299.010779, 46.550208)"><g><path d="M 11.75 -42.390625 C 12.113281 -42.390625 12.40625 -42.265625 12.625 -42.015625 C 12.84375 -41.773438 12.953125 -41.492188 12.953125 -41.171875 L 12.78125 -33.359375 C 12.738281 -31.984375 12.472656 -30.710938 11.984375 -29.546875 C 11.503906 -28.378906 10.6875 -27.441406 9.53125 -26.734375 C 8.382812 -26.023438 6.800781 -25.671875 4.78125 -25.671875 L 4.234375 -25.671875 C 3.910156 -25.671875 3.628906 -25.78125 3.390625 -26 C 3.148438 -26.226562 3.03125 -26.503906 3.03125 -26.828125 L 3.03125 -28.34375 C 3.03125 -28.664062 3.148438 -28.945312 3.390625 -29.1875 C 3.628906 -29.425781 3.910156 -29.546875 4.234375 -29.546875 L 4.78125 -29.546875 C 5.1875 -29.546875 5.648438 -29.601562 6.171875 -29.71875 C 6.703125 -29.84375 7.175781 -30.117188 7.59375 -30.546875 C 8.019531 -30.972656 8.273438 -31.648438 8.359375 -32.578125 C 8.441406 -33.097656 8.21875 -33.359375 7.6875 -33.359375 L 4.421875 -33.359375 C 4.097656 -33.359375 3.8125 -33.476562 3.5625 -33.71875 C 3.320312 -33.96875 3.203125 -34.253906 3.203125 -34.578125 L 3.03125 -41.171875 C 3.03125 -41.492188 3.148438 -41.773438 3.390625 -42.015625 C 3.628906 -42.265625 3.910156 -42.390625 4.234375 -42.390625 Z M 11.75 -42.390625 "/></g></g></g><g fill="#ff66c4" fill-opacity="1"><g transform="translate(315.054443, 46.550208)"><g><path d="M 12.59375 -30.703125 C 12.59375 -29.453125 13.078125 -28.453125 14.046875 -27.703125 C 15.015625 -26.953125 16.273438 -26.304688 17.828125 -25.765625 C 19.378906 -25.222656 21.023438 -24.644531 22.765625 -24.03125 C 24.503906 -23.425781 26.148438 -22.648438 27.703125 -21.703125 C 29.253906 -20.753906 30.515625 -19.484375 31.484375 -17.890625 C 32.453125 -16.296875 32.9375 -14.226562 32.9375 -11.6875 C 32.9375 -9.101562 32.472656 -6.890625 31.546875 -5.046875 C 30.617188 -3.210938 29.070312 -1.8125 26.90625 -0.84375 C 24.75 0.125 21.851562 0.609375 18.21875 0.609375 C 14.75 0.609375 11.925781 0.046875 9.75 -1.078125 C 7.570312 -2.210938 5.945312 -3.695312 4.875 -5.53125 C 3.800781 -7.375 3.1875 -9.328125 3.03125 -11.390625 C 2.988281 -11.710938 3.085938 -12.003906 3.328125 -12.265625 C 3.566406 -12.523438 3.867188 -12.65625 4.234375 -12.65625 L 11.390625 -12.65625 C 12.109375 -12.65625 12.488281 -12.289062 12.53125 -11.5625 C 12.613281 -10.832031 12.828125 -10.023438 13.171875 -9.140625 C 13.515625 -8.253906 14.078125 -7.476562 14.859375 -6.8125 C 15.648438 -6.144531 16.734375 -5.8125 18.109375 -5.8125 C 19.722656 -5.8125 20.898438 -6.082031 21.640625 -6.625 C 22.390625 -7.175781 22.875 -7.90625 23.09375 -8.8125 C 23.320312 -9.71875 23.4375 -10.675781 23.4375 -11.6875 C 23.4375 -12.976562 22.941406 -14.003906 21.953125 -14.765625 C 20.960938 -15.535156 19.6875 -16.191406 18.125 -16.734375 C 16.570312 -17.285156 14.925781 -17.863281 13.1875 -18.46875 C 11.457031 -19.070312 9.828125 -19.847656 8.296875 -20.796875 C 6.765625 -21.742188 5.503906 -23.003906 4.515625 -24.578125 C 3.523438 -26.148438 3.03125 -28.191406 3.03125 -30.703125 C 3.03125 -33.285156 3.503906 -35.492188 4.453125 -37.328125 C 5.398438 -39.160156 6.941406 -40.5625 9.078125 -41.53125 C 11.222656 -42.5 14.128906 -42.984375 17.796875 -42.984375 C 21.234375 -42.984375 24 -42.414062 26.09375 -41.28125 C 28.195312 -40.15625 29.75 -38.675781 30.75 -36.84375 C 31.757812 -35.007812 32.347656 -33.0625 32.515625 -31 C 32.515625 -30.675781 32.398438 -30.382812 32.171875 -30.125 C 31.953125 -29.863281 31.660156 -29.734375 31.296875 -29.734375 L 24.15625 -29.734375 C 23.425781 -29.734375 23.023438 -30.09375 22.953125 -30.8125 C 22.910156 -31.539062 22.753906 -32.347656 22.484375 -33.234375 C 22.222656 -34.128906 21.738281 -34.910156 21.03125 -35.578125 C 20.332031 -36.242188 19.296875 -36.578125 17.921875 -36.578125 C 16.304688 -36.578125 15.113281 -36.300781 14.34375 -35.75 C 13.582031 -35.207031 13.097656 -34.484375 12.890625 -33.578125 C 12.691406 -32.671875 12.59375 -31.710938 12.59375 -30.703125 Z M 12.59375 -30.703125 "/></g></g></g></g></g><g transform="matrix(1, 0, 0, 1, 78, 142)"><g clip-path="url(#71f0f89bbc)"><g fill="#74c7cd" fill-opacity="1"><g transform="translate(1.226997, 23.179405)"><g><path d="M 8.109375 -15.6875 C 9.234375 -15.6875 10.191406 -15.476562 10.984375 -15.0625 C 11.785156 -14.65625 12.390625 -14.082031 12.796875 -13.34375 C 13.203125 -12.601562 13.40625 -11.742188 13.40625 -10.765625 C 13.40625 -9.785156 13.203125 -8.925781 12.796875 -8.1875 C 12.390625 -7.445312 11.785156 -6.867188 10.984375 -6.453125 C 10.191406 -6.046875 9.234375 -5.84375 8.109375 -5.84375 L 5.140625 -5.84375 L 5.140625 0 L 2.046875 0 L 2.046875 -15.6875 Z M 7.703125 -8.3125 C 9.421875 -8.3125 10.28125 -9.128906 10.28125 -10.765625 C 10.28125 -12.410156 9.421875 -13.234375 7.703125 -13.234375 L 5.140625 -13.234375 L 5.140625 -8.3125 Z M 7.703125 -8.3125 "/></g></g></g><g fill="#74c7cd" fill-opacity="1"><g transform="translate(15.562375, 23.179405)"><g><path d="M 12.171875 -9.796875 L 12.171875 -15.6875 L 15.265625 -15.6875 L 15.265625 0 L 12.171875 0 L 12.171875 -7.15625 L 5.140625 -7.15625 L 5.140625 0 L 2.046875 0 L 2.046875 -15.6875 L 5.140625 -15.6875 L 5.140625 -9.796875 Z M 12.171875 -9.796875 "/></g></g></g><g fill="#74c7cd" fill-opacity="1"><g transform="translate(32.869982, 23.179405)"><g><path d="M 8.59375 0 L 5.5 0 L 5.5 -6.15625 L 0.078125 -15.6875 L 3.40625 -15.6875 L 6.984375 -9.515625 L 7.25 -9.515625 L 10.765625 -15.6875 L 14.015625 -15.6875 L 8.59375 -6.15625 Z M 8.59375 0 "/></g></g></g><g fill="#74c7cd" fill-opacity="1"><g transform="translate(46.958568, 23.179405)"><g><path d="M 6.953125 0.21875 C 5.867188 0.21875 4.898438 0.0859375 4.046875 -0.171875 C 3.203125 -0.441406 2.492188 -0.796875 1.921875 -1.234375 C 1.359375 -1.671875 0.929688 -2.148438 0.640625 -2.671875 L 2.34375 -4.75 L 2.609375 -4.75 C 3.078125 -4.050781 3.675781 -3.492188 4.40625 -3.078125 C 5.132812 -2.660156 5.984375 -2.453125 6.953125 -2.453125 C 7.785156 -2.453125 8.410156 -2.628906 8.828125 -2.984375 C 9.253906 -3.335938 9.46875 -3.820312 9.46875 -4.4375 C 9.46875 -4.800781 9.398438 -5.109375 9.265625 -5.359375 C 9.128906 -5.617188 8.898438 -5.835938 8.578125 -6.015625 C 8.265625 -6.191406 7.84375 -6.34375 7.3125 -6.46875 L 5.296875 -6.9375 C 3.878906 -7.257812 2.828125 -7.789062 2.140625 -8.53125 C 1.453125 -9.28125 1.109375 -10.253906 1.109375 -11.453125 C 1.109375 -12.335938 1.328125 -13.113281 1.765625 -13.78125 C 2.210938 -14.457031 2.859375 -14.984375 3.703125 -15.359375 C 4.554688 -15.734375 5.570312 -15.921875 6.75 -15.921875 C 7.957031 -15.921875 8.992188 -15.757812 9.859375 -15.4375 C 10.722656 -15.125 11.453125 -14.632812 12.046875 -13.96875 L 10.515625 -11.875 L 10.234375 -11.875 C 9.796875 -12.332031 9.289062 -12.675781 8.71875 -12.90625 C 8.144531 -13.144531 7.488281 -13.265625 6.75 -13.265625 C 5.894531 -13.265625 5.242188 -13.113281 4.796875 -12.8125 C 4.359375 -12.507812 4.140625 -12.097656 4.140625 -11.578125 C 4.140625 -11.078125 4.296875 -10.679688 4.609375 -10.390625 C 4.921875 -10.097656 5.457031 -9.867188 6.21875 -9.703125 L 8.28125 -9.28125 C 9.8125 -8.957031 10.921875 -8.410156 11.609375 -7.640625 C 12.296875 -6.867188 12.640625 -5.863281 12.640625 -4.625 C 12.640625 -3.644531 12.425781 -2.789062 12 -2.0625 C 11.582031 -1.34375 10.945312 -0.78125 10.09375 -0.375 C 9.238281 0.0195312 8.191406 0.21875 6.953125 0.21875 Z M 6.953125 0.21875 "/></g></g></g><g fill="#74c7cd" fill-opacity="1"><g transform="translate(60.43554, 23.179405)"><g><path d="M 5.140625 0 L 2.046875 0 L 2.046875 -15.6875 L 5.140625 -15.6875 Z M 5.140625 0 "/></g></g></g><g fill="#74c7cd" fill-opacity="1"><g transform="translate(67.624689, 23.179405)"><g><path d="M 8.5625 0.21875 C 7.113281 0.21875 5.84375 -0.0703125 4.75 -0.65625 C 3.65625 -1.238281 2.796875 -2.132812 2.171875 -3.34375 C 1.546875 -4.550781 1.234375 -6.050781 1.234375 -7.84375 C 1.234375 -9.644531 1.546875 -11.144531 2.171875 -12.34375 C 2.796875 -13.550781 3.65625 -14.445312 4.75 -15.03125 C 5.84375 -15.625 7.113281 -15.921875 8.5625 -15.921875 C 10 -15.921875 11.265625 -15.628906 12.359375 -15.046875 C 13.453125 -14.460938 14.304688 -13.566406 14.921875 -12.359375 C 15.546875 -11.148438 15.859375 -9.644531 15.859375 -7.84375 C 15.859375 -6.050781 15.546875 -4.550781 14.921875 -3.34375 C 14.304688 -2.132812 13.453125 -1.238281 12.359375 -0.65625 C 11.265625 -0.0703125 10 0.21875 8.5625 0.21875 Z M 8.5625 -2.46875 C 9.882812 -2.46875 10.894531 -2.894531 11.59375 -3.75 C 12.300781 -4.601562 12.65625 -5.96875 12.65625 -7.84375 C 12.65625 -9.71875 12.300781 -11.082031 11.59375 -11.9375 C 10.894531 -12.800781 9.882812 -13.234375 8.5625 -13.234375 C 7.21875 -13.234375 6.191406 -12.800781 5.484375 -11.9375 C 4.785156 -11.082031 4.4375 -9.71875 4.4375 -7.84375 C 4.4375 -5.96875 4.785156 -4.601562 5.484375 -3.75 C 6.191406 -2.894531 7.21875 -2.46875 8.5625 -2.46875 Z M 8.5625 -2.46875 "/></g></g></g><g fill="#74c7cd" fill-opacity="1"><g transform="translate(84.717695, 23.179405)"><g><path d="M 12.578125 -15.6875 L 12.578125 -13.078125 L 8.046875 -13.078125 L 8.046875 0 L 4.953125 0 L 4.953125 -13.078125 L 0.421875 -13.078125 L 0.421875 -15.6875 Z M 12.578125 -15.6875 "/></g></g></g><g fill="#74c7cd" fill-opacity="1"><g transform="translate(97.722543, 23.179405)"><g><path d="M 12.171875 -9.796875 L 12.171875 -15.6875 L 15.265625 -15.6875 L 15.265625 0 L 12.171875 0 L 12.171875 -7.15625 L 5.140625 -7.15625 L 5.140625 0 L 2.046875 0 L 2.046875 -15.6875 L 5.140625 -15.6875 L 5.140625 -9.796875 Z M 12.171875 -9.796875 "/></g></g></g><g fill="#74c7cd" fill-opacity="1"><g transform="translate(115.030151, 23.179405)"><g><path d="M 5.140625 -6.890625 L 5.140625 -2.59375 L 12.640625 -2.59375 L 12.640625 0 L 2.046875 0 L 2.046875 -15.6875 L 12.46875 -15.6875 L 12.46875 -13.09375 L 5.140625 -13.09375 L 5.140625 -9.421875 L 11.546875 -9.421875 L 11.546875 -6.890625 Z M 5.140625 -6.890625 "/></g></g></g><g fill="#74c7cd" fill-opacity="1"><g transform="translate(128.517853, 23.179405)"><g><path d="M 2.046875 0 L 2.046875 -15.6875 L 8.34375 -15.6875 C 9.96875 -15.6875 11.191406 -15.3125 12.015625 -14.5625 C 12.835938 -13.820312 13.25 -12.789062 13.25 -11.46875 C 13.25 -10.519531 13.007812 -9.738281 12.53125 -9.125 C 12.050781 -8.519531 11.332031 -8.054688 10.375 -7.734375 L 10.375 -7.515625 C 10.863281 -7.296875 11.257812 -6.972656 11.5625 -6.546875 C 11.863281 -6.128906 12.15625 -5.507812 12.4375 -4.6875 L 14 0 L 10.8125 0 L 9.28125 -4.6875 C 9.113281 -5.164062 8.929688 -5.535156 8.734375 -5.796875 C 8.546875 -6.054688 8.296875 -6.242188 7.984375 -6.359375 C 7.679688 -6.472656 7.289062 -6.53125 6.8125 -6.53125 L 5.140625 -6.53125 L 5.140625 0 Z M 7.96875 -9 C 9.46875 -9 10.21875 -9.695312 10.21875 -11.09375 C 10.21875 -12.519531 9.46875 -13.234375 7.96875 -13.234375 L 5.140625 -13.234375 L 5.140625 -9 Z M 7.96875 -9 "/></g></g></g><g fill="#74c7cd" fill-opacity="1"><g transform="translate(143.185862, 23.179405)"><g><path d="M 15.0625 0 L 11.796875 0 L 10.609375 -3.625 L 4.609375 -3.625 L 3.421875 0 L 0.234375 0 L 5.65625 -15.6875 L 9.640625 -15.6875 Z M 7.453125 -12.421875 L 5.4375 -6.21875 L 9.75 -6.21875 L 7.734375 -12.421875 Z M 7.453125 -12.421875 "/></g></g></g><g fill="#74c7cd" fill-opacity="1"><g transform="translate(158.476216, 23.179405)"><g><path d="M 8.109375 -15.6875 C 9.234375 -15.6875 10.191406 -15.476562 10.984375 -15.0625 C 11.785156 -14.65625 12.390625 -14.082031 12.796875 -13.34375 C 13.203125 -12.601562 13.40625 -11.742188 13.40625 -10.765625 C 13.40625 -9.785156 13.203125 -8.925781 12.796875 -8.1875 C 12.390625 -7.445312 11.785156 -6.867188 10.984375 -6.453125 C 10.191406 -6.046875 9.234375 -5.84375 8.109375 -5.84375 L 5.140625 -5.84375 L 5.140625 0 L 2.046875 0 L 2.046875 -15.6875 Z M 7.703125 -8.3125 C 9.421875 -8.3125 10.28125 -9.128906 10.28125 -10.765625 C 10.28125 -12.410156 9.421875 -13.234375 7.703125 -13.234375 L 5.140625 -13.234375 L 5.140625 -8.3125 Z M 7.703125 -8.3125 "/></g></g></g><g fill="#74c7cd" fill-opacity="1"><g transform="translate(172.811594, 23.179405)"><g><path d="M 8.59375 0 L 5.5 0 L 5.5 -6.15625 L 0.078125 -15.6875 L 3.40625 -15.6875 L 6.984375 -9.515625 L 7.25 -9.515625 L 10.765625 -15.6875 L 14.015625 -15.6875 L 8.59375 -6.15625 Z M 8.59375 0 "/></g></g></g><g fill="#74c7cd" fill-opacity="1"><g transform="translate(186.90018, 23.179405)"><g/></g></g><g fill="#74c7cd" fill-opacity="1"><g transform="translate(192.082805, 23.179405)"><g><path d="M 8.578125 0.21875 C 7.128906 0.21875 5.851562 -0.078125 4.75 -0.671875 C 3.65625 -1.273438 2.796875 -2.179688 2.171875 -3.390625 C 1.546875 -4.597656 1.234375 -6.082031 1.234375 -7.84375 C 1.234375 -9.613281 1.546875 -11.097656 2.171875 -12.296875 C 2.796875 -13.503906 3.65625 -14.410156 4.75 -15.015625 C 5.851562 -15.617188 7.128906 -15.921875 8.578125 -15.921875 C 10.085938 -15.921875 11.367188 -15.625 12.421875 -15.03125 C 13.484375 -14.4375 14.238281 -13.535156 14.6875 -12.328125 L 12.421875 -10.953125 L 12.15625 -10.953125 C 11.8125 -11.773438 11.351562 -12.363281 10.78125 -12.71875 C 10.207031 -13.070312 9.472656 -13.25 8.578125 -13.25 C 7.273438 -13.25 6.257812 -12.816406 5.53125 -11.953125 C 4.800781 -11.085938 4.4375 -9.71875 4.4375 -7.84375 C 4.4375 -5.976562 4.800781 -4.613281 5.53125 -3.75 C 6.257812 -2.882812 7.273438 -2.453125 8.578125 -2.453125 C 10.617188 -2.453125 11.867188 -3.445312 12.328125 -5.4375 L 12.59375 -5.4375 L 14.875 -4.234375 C 14.445312 -2.742188 13.710938 -1.628906 12.671875 -0.890625 C 11.640625 -0.148438 10.273438 0.21875 8.578125 0.21875 Z M 8.578125 0.21875 "/></g></g></g><g fill="#74c7cd" fill-opacity="1"><g transform="translate(207.469729, 23.179405)"><g><path d="M 5.140625 -15.6875 L 5.140625 -2.59375 L 12.1875 -2.59375 L 12.1875 0 L 2.046875 0 L 2.046875 -15.6875 Z M 5.140625 -15.6875 "/></g></g></g><g fill="#74c7cd" fill-opacity="1"><g transform="translate(220.174136, 23.179405)"><g><path d="M 5.140625 0 L 2.046875 0 L 2.046875 -15.6875 L 5.140625 -15.6875 Z M 5.140625 0 "/></g></g></g><g fill="#74c7cd" fill-opacity="1"><g transform="translate(227.363285, 23.179405)"><g><path d="M 5.046875 0 L 2.046875 0 L 2.046875 -15.6875 L 5.59375 -15.6875 L 11.890625 -5.578125 L 12.171875 -5.625 L 12.171875 -15.6875 L 15.15625 -15.6875 L 15.15625 0 L 11.984375 0 L 5.3125 -10.796875 L 5.046875 -10.75 Z M 5.046875 0 "/></g></g></g><g fill="#74c7cd" fill-opacity="1"><g transform="translate(244.563592, 23.179405)"><g><path d="M 5.140625 0 L 2.046875 0 L 2.046875 -15.6875 L 5.140625 -15.6875 Z M 5.140625 0 "/></g></g></g><g fill="#74c7cd" fill-opacity="1"><g transform="translate(251.752741, 23.179405)"><g><path d="M 8.578125 0.21875 C 7.128906 0.21875 5.851562 -0.078125 4.75 -0.671875 C 3.65625 -1.273438 2.796875 -2.179688 2.171875 -3.390625 C 1.546875 -4.597656 1.234375 -6.082031 1.234375 -7.84375 C 1.234375 -9.613281 1.546875 -11.097656 2.171875 -12.296875 C 2.796875 -13.503906 3.65625 -14.410156 4.75 -15.015625 C 5.851562 -15.617188 7.128906 -15.921875 8.578125 -15.921875 C 10.085938 -15.921875 11.367188 -15.625 12.421875 -15.03125 C 13.484375 -14.4375 14.238281 -13.535156 14.6875 -12.328125 L 12.421875 -10.953125 L 12.15625 -10.953125 C 11.8125 -11.773438 11.351562 -12.363281 10.78125 -12.71875 C 10.207031 -13.070312 9.472656 -13.25 8.578125 -13.25 C 7.273438 -13.25 6.257812 -12.816406 5.53125 -11.953125 C 4.800781 -11.085938 4.4375 -9.71875 4.4375 -7.84375 C 4.4375 -5.976562 4.800781 -4.613281 5.53125 -3.75 C 6.257812 -2.882812 7.273438 -2.453125 8.578125 -2.453125 C 10.617188 -2.453125 11.867188 -3.445312 12.328125 -5.4375 L 12.59375 -5.4375 L 14.875 -4.234375 C 14.445312 -2.742188 13.710938 -1.628906 12.671875 -0.890625 C 11.640625 -0.148438 10.273438 0.21875 8.578125 0.21875 Z M 8.578125 0.21875 "/></g></g></g></g></g></svg>